<?xml version="1.0" encoding="iso-8859-1"?>
<!-- Generator: Adobe Illustrator 19.0.0, SVG Export Plug-In . SVG Version: 6.00 Build 0)  -->
<svg version="1.1" id="Capa_1" xmlns="http://www.w3.org/2000/svg" xmlns:xlink="http://www.w3.org/1999/xlink" x="0px" y="0px"
	 viewBox="0 0 512 512" style="enable-background:new 0 0 512 512;" xml:space="preserve">
<g>
	<g>
		<g>
			<path d="M371,192c11.046,0,20-8.954,20-20s-8.954-20-20-20h-40v-31h40c11.046,0,20-8.954,20-20s-8.954-20-20-20h-40.449
				C326.021,35.583,287.589,0,241,0c-49.626,0-90,40.374-90,90v222.625c-19.408,21.929-30,49.797-30,79.375
				c0,66.168,53.832,120,120,120s120-53.832,120-120c0-25.135-7.695-49.208-22.255-69.615c-6.415-8.992-18.905-11.081-27.896-4.666
				c-8.992,6.415-11.081,18.905-4.666,27.896C315.876,359.203,321,375.243,321,392c0,44.112-35.888,80-80,80s-80-35.888-80-80
				c0-21.662,8.524-41.948,24.002-57.124c3.836-3.762,5.998-8.909,5.998-14.281V90c0-27.57,22.43-50,50-50s50,22.43,50,50v152
				c0,11.046,8.954,20,20,20h60c11.046,0,20-8.954,20-20s-8.954-20-20-20h-40v-30H371z"/>
			<path d="M241,70c-11.046,0-20,8.954-20,20v267.365c-11.953,6.917-20,19.832-20,34.635c0,22.091,17.909,40,40,40s40-17.909,40-40
				c0-14.803-8.047-27.718-20-34.635V90C261,78.954,252.046,70,241,70z"/>
		</g>
	</g>
</g>
<g>
</g>
<g>
</g>
<g>
</g>
<g>
</g>
<g>
</g>
<g>
</g>
<g>
</g>
<g>
</g>
<g>
</g>
<g>
</g>
<g>
</g>
<g>
</g>
<g>
</g>
<g>
</g>
<g>
</g>
</svg>
